# xmcd
#
# Track frame offsets: 
#        150
#        28835
#        48278
#        65795
#        86686
#        108122
#        140484
#        178908
#        217592
#        239670
#        286738
#
# Disc length: 4174 seconds
#
# Revision: 0
# Processed by: cddbd v1.5.2PL0 Copyright (c) Steve Scherf et al.
# Submitted via: ExactAudioCopyFreeDBPlugin 1.0
#
DISCID=9d104c0b
DTITLE=山本正之 - 才能の熟成
DYEAR=2016
DGENRE=Blues
TTITLE0=飾窓
TTITLE1=yatterman 正義に光る星
TTITLE2=燃えよドラゴンズ!命の限り
TTITLE3=邪馬台国弥生美少女
TTITLE4=MHK教育社会 むろまちだいすき
TTITLE5=実況中継 関ケ原・天下はどっちだ!
TTITLE6=FALL IN LOVE LEXINGTON Ave. -女優に恋してー
TTITLE7=真夜中のカラカル
TTITLE8=最愛のひと
TTITLE9=夕焼けノ原始人
TTITLE10=晩鐘
EXTD=
EXTT0=
EXTT1=
EXTT2=
EXTT3=
EXTT4=
EXTT5=
EXTT6=
EXTT7=
EXTT8=
EXTT9=
EXTT10=
PLAYORDER=
